<svg id="visual" viewBox="0 0 900 600" width="900" height="600" xmlns="http://www.w3.org/2000/svg" xmlns:xlink="http://www.w3.org/1999/xlink" version="1.1"><rect x="0" y="0" width="900" height="600" fill="#fff6eb"></rect><defs><linearGradient id="grad1_0" x1="33.3%" y1="100%" x2="100%" y2="0%"><stop offset="20%" stop-color="#fbae3c" stop-opacity="1"></stop><stop offset="80%" stop-color="#fbae3c" stop-opacity="1"></stop></linearGradient></defs><defs><linearGradient id="grad1_1" x1="33.3%" y1="100%" x2="100%" y2="0%"><stop offset="20%" stop-color="#fbae3c" stop-opacity="1"></stop><stop offset="80%" stop-color="#ffd295" stop-opacity="1"></stop></linearGradient></defs><defs><linearGradient id="grad1_2" x1="33.3%" y1="100%" x2="100%" y2="0%"><stop offset="20%" stop-color="#fff6eb" stop-opacity="1"></stop><stop offset="80%" stop-color="#ffd295" stop-opacity="1"></stop></linearGradient></defs><defs><linearGradient id="grad2_0" x1="0%" y1="100%" x2="66.7%" y2="0%"><stop offset="20%" stop-color="#fbae3c" stop-opacity="1"></stop><stop offset="80%" stop-color="#fbae3c" stop-opacity="1"></stop></linearGradient></defs><defs><linearGradient id="grad2_1" x1="0%" y1="100%" x2="66.7%" y2="0%"><stop offset="20%" stop-color="#ffd295" stop-opacity="1"></stop><stop offset="80%" stop-color="#fbae3c" stop-opacity="1"></stop></linearGradient></defs><defs><linearGradient id="grad2_2" x1="0%" y1="100%" x2="66.7%" y2="0%"><stop offset="20%" stop-color="#ffd295" stop-opacity="1"></stop><stop offset="80%" stop-color="#fff6eb" stop-opacity="1"></stop></linearGradient></defs><g transform="translate(900, 600)"><path d="M-189.3 0C-173.9 -26.9 -158.5 -53.8 -144.6 -83.5C-130.8 -113.2 -118.5 -145.8 -94.6 -163.9C-70.8 -182 -35.4 -185.7 0 -189.3L0 0Z" fill="#ffe4bf"></path><path d="M-126.2 0C-115.9 -17.9 -105.6 -35.8 -96.4 -55.7C-87.2 -75.5 -79 -97.2 -63.1 -109.3C-47.2 -121.4 -23.6 -123.8 0 -126.2L0 0Z" fill="#ffc06a"></path><path d="M-63.1 0C-58 -9 -52.8 -17.9 -48.2 -27.8C-43.6 -37.7 -39.5 -48.6 -31.5 -54.6C-23.6 -60.7 -11.8 -61.9 0 -63.1L0 0Z" fill="#fbae3c"></path></g><g transform="translate(0, 0)"><path d="M189.3 0C169.7 24.5 150.2 49 136.8 79C123.5 109 116.4 144.6 94.6 163.9C72.9 183.2 36.4 186.3 0 189.3L0 0Z" fill="#ffe4bf"></path><path d="M126.2 0C113.2 16.3 100.1 32.6 91.2 52.7C82.3 72.7 77.6 96.4 63.1 109.3C48.6 122.2 24.3 124.2 0 126.2L0 0Z" fill="#ffc06a"></path><path d="M63.1 0C56.6 8.2 50.1 16.3 45.6 26.3C41.2 36.3 38.8 48.2 31.5 54.6C24.3 61.1 12.1 62.1 0 63.1L0 0Z" fill="#fbae3c"></path></g></svg>